<svg width="20" height="20" viewBox="0 0 20 20" fill="none" xmlns="http://www.w3.org/2000/svg">
<path d="M11.5584 2.66664C11.3 2.59164 11.0334 2.5333 10.7584 2.49997C9.95836 2.39997 9.1917 2.4583 8.47503 2.66664C8.7167 2.04997 9.3167 1.61664 10.0167 1.61664C10.7167 1.61664 11.3167 2.04997 11.5584 2.66664Z" stroke="#565659" stroke-width="1.25" stroke-miterlimit="10" stroke-linecap="round" stroke-linejoin="round"/>
<path d="M12.5167 15.8833C12.5167 17.2583 11.3917 18.3833 10.0167 18.3833C9.33337 18.3833 8.70003 18.1 8.25003 17.65C7.80003 17.2 7.5167 16.5667 7.5167 15.8833" stroke="#565659" stroke-width="1.25" stroke-miterlimit="10"/>
<path d="M13.8107 3.28021C12.8087 2.36192 11.4755 1.79993 10.0167 1.79993C6.91317 1.79993 4.39168 4.32142 4.39168 7.42493V9.83326C4.39168 10.0121 4.3512 10.2738 4.27383 10.5525C4.19669 10.8304 4.09672 11.0754 4.00547 11.2288L4.00484 11.2299L3.04791 12.8192C2.66371 13.4577 2.58345 14.1743 2.81911 14.8107C3.0545 15.4464 3.58097 15.9377 4.28297 16.1753L4.28529 16.1761C8.00519 17.4189 12.0188 17.419 15.7388 16.1764C17.129 15.7161 17.7322 14.0777 16.9776 12.82L16.0221 11.233C15.9329 11.0769 15.8349 10.831 15.759 10.5544C15.6822 10.2744 15.6417 10.0123 15.6417 9.83326V8.17276C15.1705 8.02064 14.7451 7.76646 14.3917 7.43628V9.83326C14.3917 10.1625 14.4595 10.5421 14.5535 10.885C14.6477 11.2286 14.7819 11.5848 14.942 11.8623L14.9479 11.8723L15.9057 13.4632C16.2505 14.0384 15.9711 14.783 15.3455 14.9898L15.3436 14.9905C11.8809 16.1474 8.14539 16.1475 4.68261 14.9909C4.30197 14.8617 4.08293 14.624 3.99133 14.3767C3.89992 14.1298 3.91141 13.8087 4.11878 13.464L5.07712 11.8723L5.07852 11.87C5.24543 11.59 5.38268 11.2313 5.47828 10.8869C5.57382 10.5427 5.64168 10.1627 5.64168 9.83326V7.42493C5.64168 5.01177 7.60352 3.04993 10.0167 3.04993C11.3512 3.04993 12.5518 3.65662 13.3562 4.60762C13.4127 4.12633 13.5716 3.67638 13.8107 3.28021Z" fill="#565659"/>
<path d="M16.25 7.49998C17.4006 7.49998 18.3334 6.56724 18.3334 5.41665C18.3334 4.26605 17.4006 3.33331 16.25 3.33331C15.0994 3.33331 14.1667 4.26605 14.1667 5.41665C14.1667 6.56724 15.0994 7.49998 16.25 7.49998Z" fill="#EE222E" stroke="white" stroke-width="0.833333" stroke-linecap="round" stroke-linejoin="round"/>
</svg>
