<svg width="16" height="17" viewBox="0 0 16 17" fill="none" xmlns="http://www.w3.org/2000/svg">
<path d="M11.8107 2.28021C10.8087 1.36192 9.47551 0.799927 8.01668 0.799927C4.91317 0.799927 2.39168 3.32142 2.39168 6.42493V8.83326C2.39168 9.01212 2.3512 9.27381 2.27383 9.55254C2.19669 9.83044 2.09672 10.0754 2.00547 10.2288L2.00484 10.2299L1.04791 11.8192C0.66371 12.4577 0.583447 13.1743 0.819111 13.8107C1.0545 14.4464 1.58097 14.9377 2.28297 15.1753L2.28529 15.1761C6.00519 16.4189 10.0188 16.419 13.7388 15.1764C15.129 14.7161 15.7322 13.0777 14.9776 11.82L14.0221 10.233C13.9329 10.0769 13.8349 9.83105 13.759 9.55442C13.6822 9.27438 13.6417 9.01231 13.6417 8.83326V7.17276C13.1705 7.02064 12.7451 6.76646 12.3917 6.43628V8.83326C12.3917 9.16254 12.4595 9.54214 12.5535 9.88502C12.6477 10.2286 12.7819 10.5848 12.942 10.8623L12.9479 10.8723L13.9057 12.4632C14.2505 13.0384 13.9711 13.783 13.3455 13.9898L13.3436 13.9905C9.8809 15.1474 6.14539 15.1475 2.68261 13.9909C2.30197 13.8617 2.08293 13.624 1.99133 13.3767C1.89992 13.1298 1.91141 12.8087 2.11878 12.464L3.07712 10.8723L3.07852 10.87C3.24543 10.59 3.38268 10.2313 3.47828 9.88689C3.57382 9.54271 3.64168 9.16273 3.64168 8.83326V6.42493C3.64168 4.01177 5.60352 2.04993 8.01668 2.04993C9.35117 2.04993 10.5518 2.65662 11.3562 3.60762C11.4127 3.12633 11.5716 2.67638 11.8107 2.28021Z" fill="#565659"/>
</svg>
